<?xml version="1.0" standalone="no"?>
<!DOCTYPE svg PUBLIC "-//W3C//DTD SVG 20010904//EN"
 "http://www.w3.org/TR/2001/REC-SVG-20010904/DTD/svg10.dtd">
<svg version="1.0" xmlns="http://www.w3.org/2000/svg"
 width="512.000000pt" height="512.000000pt" viewBox="0 0 512.000000 512.000000"
 preserveAspectRatio="xMidYMid meet">
<metadata>
Created by potrace 1.11, written by Peter Selinger 2001-2013
</metadata>
<g transform="translate(0.000000,512.000000) scale(0.100000,-0.100000)"
fill="#000000" stroke="none">
<path d="M1155 4860 c-297 -82 -439 -406 -299 -682 51 -100 181 -203 302 -239
23 -7 42 -15 42 -19 0 -4 -6 -26 -14 -48 -29 -82 -57 -251 -63 -377 -3 -71 -6
-131 -7 -131 0 -1 -55 -4 -121 -6 -139 -5 -192 -24 -260 -93 -65 -65 -89 -125
-89 -225 0 -74 4 -92 28 -139 34 -67 89 -121 152 -151 41 -19 70 -24 169 -28
66 -2 122 -6 124 -8 3 -3 6 -21 7 -42 5 -61 14 -125 24 -162 5 -19 11 -47 14
-61 8 -48 65 -203 101 -279 123 -254 358 -500 605 -633 l45 -24 3 -236 2 -237
-622 -1 c-343 0 -636 -3 -653 -5 -98 -15 -200 -70 -273 -149 -112 -120 -130
-187 -132 -495 l-1 -230 2361 0 2360 0 0 177 0 177 -207 208 c-183 183 -208
211 -204 235 16 130 0 191 -66 255 -61 59 -147 81 -229 58 -49 -14 -126 -76
-146 -118 l-13 -27 -216 -3 -217 -2 -6 23 c-6 26 -70 92 -106 110 -24 12 -25
16 -28 122 l-3 110 281 280 280 280 0 188 c0 151 3 187 14 187 20 0 102 76
122 113 22 42 26 149 6 199 -24 61 -98 124 -165 139 l-57 12 0 119 0 118 48 0
c42 0 48 -3 60 -28 16 -37 66 -87 105 -107 18 -9 55 -18 84 -21 90 -10 170 29
223 108 76 117 32 278 -94 344 -42 21 -127 28 -173 14 -55 -18 -119 -69 -140
-112 l-18 -38 -87 0 -88 0 0 245 0 244 48 32 c129 84 147 256 39 366 -64 66
-157 88 -252 58 -16 -5 -75 49 -310 284 l-290 291 -297 0 -298 0 0 -40 0 -40
-576 0 c-413 0 -588 3 -616 12 -46 14 -119 75 -139 116 l-14 29 -60 -17z"/>
</g>
</svg>
